<mxfile host="65bd71144e">
    <diagram id="PJhBvZbjIUu8iOUgB9s-" name="ページ1">
        <mxGraphModel dx="1296" dy="925" grid="1" gridSize="10" guides="1" tooltips="1" connect="1" arrows="1" fold="1" page="1" pageScale="1" pageWidth="827" pageHeight="1169" math="0" shadow="0">
            <root>
                <mxCell id="0"/>
                <mxCell id="1" parent="0"/>
                <mxCell id="42" value="#002 過去の日記を閲覧する" style="swimlane;whiteSpace=wrap;html=1;swimlaneLine=1;startSize=20;rounded=0;" parent="1" vertex="1">
                    <mxGeometry x="40" y="40" width="760" height="480" as="geometry"/>
                </mxCell>
                <mxCell id="47" value="ユーザー" style="swimlane;whiteSpace=wrap;html=1;" parent="42" vertex="1">
                    <mxGeometry y="20" width="320" height="460" as="geometry">
                        <mxRectangle y="20" width="90" height="30" as="alternateBounds"/>
                    </mxGeometry>
                </mxCell>
                <mxCell id="60" style="edgeStyle=none;html=1;exitX=0.5;exitY=1;exitDx=0;exitDy=0;entryX=0.5;entryY=0;entryDx=0;entryDy=0;rounded=0;" parent="47" source="49" target="50" edge="1">
                    <mxGeometry relative="1" as="geometry"/>
                </mxCell>
                <mxCell id="49" value="" style="ellipse;whiteSpace=wrap;html=1;aspect=fixed;fillColor=#000000;" parent="47" vertex="1">
                    <mxGeometry x="140" y="60" width="40" height="40" as="geometry"/>
                </mxCell>
                <mxCell id="50" value="「過去の日記の閲覧」&lt;br&gt;を選択する" style="rounded=1;whiteSpace=wrap;html=1;fillColor=none;" parent="47" vertex="1">
                    <mxGeometry x="90" y="140" width="140" height="40" as="geometry"/>
                </mxCell>
                <mxCell id="48" value="システム" style="swimlane;whiteSpace=wrap;html=1;" parent="42" vertex="1">
                    <mxGeometry x="320" y="20" width="440" height="460" as="geometry">
                        <mxRectangle x="320" y="20" width="90" height="30" as="alternateBounds"/>
                    </mxGeometry>
                </mxCell>
                <mxCell id="97" style="edgeStyle=none;html=1;exitX=0.5;exitY=1;exitDx=0;exitDy=0;entryX=0.5;entryY=0;entryDx=0;entryDy=0;" edge="1" parent="48" source="51" target="64">
                    <mxGeometry relative="1" as="geometry"/>
                </mxCell>
                <mxCell id="51" value="「過去の日記を表示する画面」を表示する" style="rounded=1;whiteSpace=wrap;html=1;fillColor=none;" parent="48" vertex="1">
                    <mxGeometry x="50" y="250" width="180" height="40" as="geometry"/>
                </mxCell>
                <mxCell id="76" style="edgeStyle=orthogonalEdgeStyle;html=1;exitX=1;exitY=0.5;exitDx=0;exitDy=0;fontColor=#000000;rounded=0;" parent="48" target="75" edge="1">
                    <mxGeometry relative="1" as="geometry">
                        <mxPoint x="305" y="325" as="sourcePoint"/>
                    </mxGeometry>
                </mxCell>
                <mxCell id="101" style="edgeStyle=orthogonalEdgeStyle;html=1;exitX=0.5;exitY=1;exitDx=0;exitDy=0;rounded=0;" edge="1" parent="48" source="99" target="51">
                    <mxGeometry relative="1" as="geometry"/>
                </mxCell>
                <mxCell id="104" style="edgeStyle=orthogonalEdgeStyle;rounded=0;html=1;exitX=1;exitY=0.5;exitDx=0;exitDy=0;entryX=0.5;entryY=0;entryDx=0;entryDy=0;" edge="1" parent="48" source="99" target="103">
                    <mxGeometry relative="1" as="geometry"/>
                </mxCell>
                <mxCell id="99" value="" style="rhombus;whiteSpace=wrap;html=1;rounded=0;shadow=0;sketch=0;fillStyle=auto;strokeColor=default;strokeWidth=1;fontColor=#000000;fillColor=none;" vertex="1" parent="48">
                    <mxGeometry x="120" y="147.5" width="40" height="25" as="geometry"/>
                </mxCell>
                <mxCell id="69" value="" style="group" parent="48" vertex="1" connectable="0">
                    <mxGeometry x="120" y="350" width="140" height="40" as="geometry"/>
                </mxCell>
                <mxCell id="64" value="" style="ellipse;shape=doubleEllipse;whiteSpace=wrap;html=1;aspect=fixed;rounded=0;fillColor=none;" parent="69" vertex="1">
                    <mxGeometry width="40" height="40" as="geometry"/>
                </mxCell>
                <mxCell id="68" value="" style="ellipse;whiteSpace=wrap;html=1;aspect=fixed;fillColor=#000000;" parent="69" vertex="1">
                    <mxGeometry x="5.003636363636363" y="5" width="30" height="30" as="geometry"/>
                </mxCell>
                <mxCell id="100" value="[記録された日記が存在する場合]" style="text;html=1;strokeColor=none;fillColor=none;align=center;verticalAlign=middle;whiteSpace=wrap;rounded=0;shadow=0;sketch=0;fillStyle=auto;strokeWidth=1;fontColor=#000000;" vertex="1" parent="48">
                    <mxGeometry x="140" y="200" width="190" height="30" as="geometry"/>
                </mxCell>
                <mxCell id="105" style="edgeStyle=orthogonalEdgeStyle;rounded=0;html=1;exitX=0.5;exitY=1;exitDx=0;exitDy=0;entryX=1;entryY=0.5;entryDx=0;entryDy=0;" edge="1" parent="48" source="103" target="64">
                    <mxGeometry relative="1" as="geometry"/>
                </mxCell>
                <mxCell id="103" value="「記録された日記が存在しません」と出力する" style="rounded=1;whiteSpace=wrap;html=1;fillColor=none;" vertex="1" parent="48">
                    <mxGeometry x="250" y="250" width="180" height="40" as="geometry"/>
                </mxCell>
                <mxCell id="106" value="[記録された日記が存在しない場合]" style="text;html=1;strokeColor=none;fillColor=none;align=center;verticalAlign=middle;whiteSpace=wrap;rounded=0;shadow=0;sketch=0;fillStyle=auto;strokeWidth=1;fontColor=#000000;" vertex="1" parent="48">
                    <mxGeometry x="170" y="130" width="190" height="30" as="geometry"/>
                </mxCell>
                <mxCell id="62" style="edgeStyle=orthogonalEdgeStyle;html=1;exitX=1;exitY=0.5;exitDx=0;exitDy=0;entryX=0;entryY=0.5;entryDx=0;entryDy=0;rounded=0;" parent="42" source="50" target="99" edge="1">
                    <mxGeometry relative="1" as="geometry"/>
                </mxCell>
            </root>
        </mxGraphModel>
    </diagram>
</mxfile>